<?xml version="1.0" encoding="utf-8"?>
<!-- Generator: Adobe Illustrator 23.0.1, SVG Export Plug-In . SVG Version: 6.00 Build 0)  -->
<svg version="1.1" id="Layer_1" xmlns="http://www.w3.org/2000/svg" xmlns:xlink="http://www.w3.org/1999/xlink" x="0px" y="0px"
	 viewBox="0 0 3300 1860" style="enable-background:new 0 0 3300 1860;" xml:space="preserve">
<style type="text/css">
	.st0{fill:#F50612;}
</style>
<g transform="scale(15) translate(10, 10)">
	<g id="SvgjsG5187">
	</g>
	<g id="SvgjsG5188" transform="matrix(4.659259893162298,0,0,4.659259893162298,-7.45481594014509,-13.762225010786072)">
		<path class="st0" d="M3.8,20H2.22c-0.34,0-0.62-0.28-0.62-0.62V5.98c0-0.34,0.28-0.62,0.62-0.62h6.04c0.74,0,1.44,0.12,2.06,0.36
			c0.62,0.26,1.14,0.6,1.58,1.04c0.44,0.46,0.8,0.98,1.04,1.6s0.36,1.3,0.36,2.04c0,1.1-0.26,2.08-0.82,2.9
			c-0.44,0.66-1,1.16-1.66,1.52c-0.3,0.16-0.4,0.48-0.18,0.74c0.98,1.32,1.84,2.46,2.8,3.78c0.2,0.28,0.1,0.66-0.24,0.66h-2.02
			c-0.34,0-0.78-0.22-0.98-0.48c-0.46-0.6-0.9-1.22-1.34-1.82l-1.32-1.86c-0.2-0.28-0.64-0.5-0.98-0.5H5.02
			c-0.34,0-0.62,0.28-0.62,0.62v3.42C4.4,19.72,4.14,20,3.8,20L3.8,20z M5.02,12.86h3.24c0.24,0,0.52-0.06,0.78-0.16
			c0.28-0.1,0.52-0.24,0.74-0.46c0.2-0.2,0.38-0.46,0.52-0.76s0.2-0.66,0.2-1.08c0-0.22-0.02-0.46-0.08-0.76
			c-0.04-0.3-0.16-0.58-0.3-0.84c-0.16-0.26-0.4-0.5-0.68-0.68c-0.3-0.18-0.7-0.28-1.18-0.28H5.02c-0.34,0-0.62,0.28-0.62,0.62v3.78
			C4.4,12.58,4.68,12.86,5.02,12.86L5.02,12.86z M30.46,18.06v1.34c0,0.34-0.28,0.62-0.62,0.62h-6.66c-1.36,0-2.54-0.2-3.54-0.6
			c-0.98-0.38-1.82-0.92-2.46-1.6c-0.66-0.66-1.14-1.46-1.46-2.36c-0.3-0.9-0.46-1.88-0.46-2.9s0.2-2,0.58-2.9
			c0.4-0.9,0.94-1.7,1.6-2.38c0.68-0.66,1.46-1.2,2.36-1.6c0.9-0.38,1.86-0.58,2.9-0.58c1.02,0,1.98,0.2,2.9,0.58
			c0.9,0.4,1.7,0.94,2.36,1.6c0.68,0.68,1.22,1.48,1.6,2.38c0.4,0.9,0.6,1.88,0.6,2.9c0,0.44-0.06,0.9-0.16,1.36
			s-0.26,0.92-0.48,1.36c-0.24,0.44-0.52,0.84-0.88,1.22c-0.22,0.24-0.48,0.44-0.78,0.64c-0.28,0.18-0.26,0.3,0.08,0.3h1.9
			C30.18,17.44,30.46,17.72,30.46,18.06L30.46,18.06z M18.06,12.56c0,0.64,0.12,1.24,0.36,1.82s0.58,1.08,1,1.5
			c0.42,0.44,0.92,0.78,1.48,1.04s1.16,0.38,1.8,0.38c0.64,0,1.24-0.12,1.82-0.38c0.56-0.26,1.04-0.6,1.46-1.04
			c0.42-0.42,0.76-0.92,1-1.5c0.26-0.58,0.38-1.18,0.38-1.82s-0.12-1.26-0.38-1.84c-0.24-0.58-0.58-1.08-1-1.5s-0.9-0.76-1.46-1.02
			c-0.58-0.26-1.18-0.38-1.82-0.38c-0.64,0-1.24,0.12-1.8,0.38c-0.56,0.26-1.06,0.6-1.48,1.02s-0.76,0.92-1,1.5
			C18.18,11.3,18.06,11.92,18.06,12.56L18.06,12.56z M34.74,20h-1.58c-0.34,0-0.62-0.28-0.62-0.62V5.98c0-0.34,0.28-0.62,0.62-0.62
			h6.04c0.74,0,1.44,0.12,2.06,0.36c0.62,0.26,1.14,0.6,1.58,1.04c0.44,0.46,0.8,0.98,1.04,1.6s0.36,1.3,0.36,2.04
			c0,1.1-0.26,2.08-0.82,2.9c-0.44,0.66-1,1.16-1.66,1.52c-0.3,0.16-0.4,0.48-0.18,0.74c0.98,1.32,1.84,2.46,2.8,3.78
			c0.2,0.28,0.1,0.66-0.24,0.66h-2.02c-0.34,0-0.78-0.22-0.98-0.48c-0.46-0.6-0.9-1.22-1.34-1.82l-1.32-1.86
			c-0.2-0.28-0.64-0.5-0.98-0.5h-1.54c-0.34,0-0.62,0.28-0.62,0.62v3.42C35.34,19.72,35.08,20,34.74,20L34.74,20z M35.96,12.86h3.24
			c0.24,0,0.52-0.06,0.78-0.16c0.28-0.1,0.52-0.24,0.74-0.46c0.2-0.2,0.38-0.46,0.52-0.76s0.2-0.66,0.2-1.08
			c0-0.22-0.02-0.46-0.08-0.76c-0.04-0.3-0.16-0.58-0.3-0.84c-0.16-0.26-0.4-0.5-0.68-0.68c-0.3-0.18-0.7-0.28-1.18-0.28h-3.24
			c-0.34,0-0.62,0.28-0.62,0.62v3.78C35.34,12.58,35.62,12.86,35.96,12.86L35.96,12.86z"/>
	</g>
</g>
</svg>
