
		<svg xmlns="http://www.w3.org/2000/svg" xmlns:xlink="http://www.w3.org/1999/xlink" version="1.1" width="3300" height="1860">
			
			<g transform="scale(15) translate(10, 10)">
				<defs id="SvgjsDefs5186"></defs><g id="SvgjsG5187" featureKey="root" fill="#c5fbfa"></g><g id="SvgjsG5188" featureKey="text1" fill="#f50612" transform="matrix(4.659259893162298,0,0,4.659259893162298,-7.45481594014509,-13.762225010786072)"><path d="M3.8 20 l-1.58 0 c-0.34 0 -0.62 -0.28 -0.62 -0.62 l0 -13.4 c0 -0.34 0.28 -0.62 0.62 -0.62 l6.04 0 c0.74 0 1.44 0.12 2.06 0.36 c0.62 0.26 1.14 0.6 1.58 1.04 c0.44 0.46 0.8 0.98 1.04 1.6 s0.36 1.3 0.36 2.04 c0 1.1 -0.26 2.08 -0.82 2.9 c-0.44 0.66 -1 1.16 -1.66 1.52 c-0.3 0.16 -0.4 0.48 -0.18 0.74 c0.98 1.32 1.84 2.46 2.8 3.78 c0.2 0.28 0.1 0.66 -0.24 0.66 l-2.02 0 c-0.34 0 -0.78 -0.22 -0.98 -0.48 c-0.46 -0.6 -0.9 -1.22 -1.34 -1.82 l-1.32 -1.86 c-0.2 -0.28 -0.64 -0.5 -0.98 -0.5 l-1.54 0 c-0.34 0 -0.62 0.28 -0.62 0.62 l0 3.42 c0 0.34 -0.26 0.62 -0.6 0.62 z M5.02 12.86 l3.24 0 c0.24 0 0.52 -0.06 0.78 -0.16 c0.28 -0.1 0.52 -0.24 0.74 -0.46 c0.2 -0.2 0.38 -0.46 0.52 -0.76 s0.2 -0.66 0.2 -1.08 c0 -0.22 -0.02 -0.46 -0.08 -0.76 c-0.04 -0.3 -0.16 -0.58 -0.3 -0.84 c-0.16 -0.26 -0.4 -0.5 -0.68 -0.68 c-0.3 -0.18 -0.7 -0.28 -1.18 -0.28 l-3.24 0 c-0.34 0 -0.62 0.28 -0.62 0.62 l0 3.78 c0 0.34 0.28 0.62 0.62 0.62 z M30.46 18.06 l0 1.34 c0 0.34 -0.28 0.62 -0.62 0.62 l-6.66 0 c-1.36 0 -2.54 -0.2 -3.54 -0.6 c-0.98 -0.38 -1.82 -0.92 -2.46 -1.6 c-0.66 -0.66 -1.14 -1.46 -1.46 -2.36 c-0.3 -0.9 -0.46 -1.88 -0.46 -2.9 s0.2 -2 0.58 -2.9 c0.4 -0.9 0.94 -1.7 1.6 -2.38 c0.68 -0.66 1.46 -1.2 2.36 -1.6 c0.9 -0.38 1.86 -0.58 2.9 -0.58 c1.02 0 1.98 0.2 2.9 0.58 c0.9 0.4 1.7 0.94 2.36 1.6 c0.68 0.68 1.22 1.48 1.6 2.38 c0.4 0.9 0.6 1.88 0.6 2.9 c0 0.44 -0.06 0.9 -0.16 1.36 s-0.26 0.92 -0.48 1.36 c-0.24 0.44 -0.52 0.84 -0.88 1.22 c-0.22 0.24 -0.48 0.44 -0.78 0.64 c-0.28 0.18 -0.26 0.3 0.08 0.3 l1.9 0 c0.34 0 0.62 0.28 0.62 0.62 z M18.060000000000002 12.559999999999999 c0 0.64 0.12 1.24 0.36 1.82 s0.58 1.08 1 1.5 c0.42 0.44 0.92 0.78 1.48 1.04 s1.16 0.38 1.8 0.38 s1.24 -0.12 1.82 -0.38 c0.56 -0.26 1.04 -0.6 1.46 -1.04 c0.42 -0.42 0.76 -0.92 1 -1.5 c0.26 -0.58 0.38 -1.18 0.38 -1.82 s-0.12 -1.26 -0.38 -1.84 c-0.24 -0.58 -0.58 -1.08 -1 -1.5 s-0.9 -0.76 -1.46 -1.02 c-0.58 -0.26 -1.18 -0.38 -1.82 -0.38 s-1.24 0.12 -1.8 0.38 s-1.06 0.6 -1.48 1.02 s-0.76 0.92 -1 1.5 s-0.36 1.2 -0.36 1.84 z M34.739999999999995 20 l-1.58 0 c-0.34 0 -0.62 -0.28 -0.62 -0.62 l0 -13.4 c0 -0.34 0.28 -0.62 0.62 -0.62 l6.04 0 c0.74 0 1.44 0.12 2.06 0.36 c0.62 0.26 1.14 0.6 1.58 1.04 c0.44 0.46 0.8 0.98 1.04 1.6 s0.36 1.3 0.36 2.04 c0 1.1 -0.26 2.08 -0.82 2.9 c-0.44 0.66 -1 1.16 -1.66 1.52 c-0.3 0.16 -0.4 0.48 -0.18 0.74 c0.98 1.32 1.84 2.46 2.8 3.78 c0.2 0.28 0.1 0.66 -0.24 0.66 l-2.02 0 c-0.34 0 -0.78 -0.22 -0.98 -0.48 c-0.46 -0.6 -0.9 -1.22 -1.34 -1.82 l-1.32 -1.86 c-0.2 -0.28 -0.64 -0.5 -0.98 -0.5 l-1.54 0 c-0.34 0 -0.62 0.28 -0.62 0.62 l0 3.42 c0 0.34 -0.26 0.62 -0.6 0.62 z M35.959999999999994 12.86 l3.24 0 c0.24 0 0.52 -0.06 0.78 -0.16 c0.28 -0.1 0.52 -0.24 0.74 -0.46 c0.2 -0.2 0.38 -0.46 0.52 -0.76 s0.2 -0.66 0.2 -1.08 c0 -0.22 -0.02 -0.46 -0.08 -0.76 c-0.04 -0.3 -0.16 -0.58 -0.3 -0.84 c-0.16 -0.26 -0.4 -0.5 -0.68 -0.68 c-0.3 -0.18 -0.7 -0.28 -1.18 -0.28 l-3.24 0 c-0.34 0 -0.62 0.28 -0.62 0.62 l0 3.78 c0 0.34 0.28 0.62 0.62 0.62 z"></path></g><g id="SvgjsG5189" featureKey="text3" fill="#f50612" transform="matrix(0.281989191737221,0,0,0.281989191737221,14.774408660056515,93.56749479302606)"><path d="M14.68 16.92 c-0.26 0.38 -0.54 0.74 -0.86 1.06 c-0.46 0.48 -0.98 0.88 -1.56 1.22 c-0.56 0.34 -1.18 0.62 -1.84 0.8 s-1.34 0.28 -2.04 0.28 c-1.04 0 -2.02 -0.2 -2.94 -0.6 s-1.72 -0.94 -2.42 -1.64 c-0.68 -0.68 -1.22 -1.48 -1.62 -2.4 s-0.6 -1.9 -0.6 -2.94 s0.2 -2.02 0.6 -2.94 s0.94 -1.72 1.62 -2.42 c0.7 -0.68 1.5 -1.22 2.42 -1.62 s1.9 -0.6 2.94 -0.6 c0.7 0 1.38 0.1 2.04 0.28 s1.28 0.44 1.84 0.78 c0.58 0.34 1.1 0.76 1.56 1.22 c0.32 0.34 0.6 0.68 0.86 1.06 c0.18 0.28 0.06 0.62 -0.26 0.74 l-1.48 0.6 c-0.3 0.14 -0.7 0.02 -0.92 -0.24 c-0.12 -0.14 -0.26 -0.28 -0.4 -0.42 c-0.28 -0.28 -0.6 -0.52 -0.94 -0.74 s-0.72 -0.38 -1.1 -0.5 s-0.78 -0.18 -1.2 -0.18 c-0.66 0 -1.3 0.14 -1.88 0.4 c-0.58 0.28 -1.08 0.64 -1.5 1.1 s-0.76 0.98 -1.02 1.58 c-0.26 0.62 -0.38 1.24 -0.38 1.9 s0.12 1.3 0.38 1.9 s0.6 1.12 1.02 1.58 s0.92 0.82 1.5 1.08 c0.58 0.28 1.22 0.42 1.88 0.42 c0.42 0 0.82 -0.06 1.2 -0.18 s0.76 -0.28 1.1 -0.5 s0.66 -0.46 0.94 -0.76 c0.14 -0.14 0.28 -0.28 0.4 -0.42 c0.22 -0.26 0.62 -0.38 0.92 -0.26 l1.48 0.6 c0.32 0.14 0.44 0.48 0.26 0.76 z M29.96 5.98 l0 13.4 c0 0.34 -0.28 0.62 -0.62 0.62 l-1.56 0 c-0.34 0 -0.62 -0.28 -0.62 -0.62 l0 -4.58 c0 -0.34 -0.28 -0.62 -0.62 -0.62 l-5.98 0 c-0.34 0 -0.62 0.28 -0.62 0.62 l0 4.58 c0 0.34 -0.28 0.62 -0.62 0.62 l-1.56 0 c-0.34 0 -0.62 -0.28 -0.62 -0.62 l0 -13.4 c0 -0.34 0.28 -0.62 0.62 -0.62 l1.56 0 c0.34 0 0.62 0.28 0.62 0.62 l0 5.1 c0 0.34 0.28 0.62 0.62 0.62 l5.98 0 c0.34 0 0.62 -0.28 0.62 -0.62 l0 -5.1 c0 -0.34 0.28 -0.62 0.62 -0.62 l1.56 0 c0.34 0 0.62 0.28 0.62 0.62 z M31.96 19.46 l6.94 -13.86 c0.16 -0.32 0.64 -0.32 0.8 0 l6.94 13.86 c0.16 0.3 0.02 0.54 -0.32 0.54 l-1.82 0 c-0.34 0 -0.74 -0.24 -0.88 -0.56 l-0.6 -1.2 c-0.16 -0.3 -0.54 -0.54 -0.88 -0.54 l-5.68 0 c-0.34 0 -0.74 0.24 -0.88 0.56 l-0.58 1.18 c-0.16 0.32 -0.54 0.56 -0.88 0.56 l-1.82 0 c-0.34 0 -0.48 -0.24 -0.34 -0.54 z M37.82 15.26 l2.96 0 c0.34 0 0.48 -0.26 0.34 -0.56 l-1.56 -3.3 c-0.14 -0.32 -0.38 -0.32 -0.52 0 l-1.58 3.3 c-0.14 0.32 0.02 0.56 0.36 0.56 z M51.440000000000005 11.92 l0 7.46 c0 0.34 -0.28 0.62 -0.62 0.62 l-1.58 0 c-0.32 0 -0.6 -0.28 -0.6 -0.62 l0 -13.68 c0 -0.34 0.44 -0.42 0.68 -0.2 l8.78 8.3 c0.26 0.24 0.46 0.14 0.46 -0.2 l0 -7.6 c0 -0.34 0.28 -0.62 0.62 -0.62 l1.56 0 c0.34 0 0.62 0.28 0.62 0.62 l0 13.66 c0 0.34 -0.44 0.42 -0.7 0.2 l-8.76 -8.16 c-0.26 -0.22 -0.46 -0.12 -0.46 0.22 z M78.78 12.620000000000001 c-0.02 0.54 -0.04 1.18 -0.06 1.26 c-0.08 0.92 -0.32 1.78 -0.74 2.56 s-0.96 1.46 -1.62 2.02 c-0.66 0.58 -1.42 1.02 -2.28 1.34 s-1.78 0.48 -2.72 0.48 c-1.04 0 -2.02 -0.2 -2.94 -0.6 s-1.72 -0.94 -2.42 -1.64 c-0.68 -0.68 -1.24 -1.48 -1.64 -2.4 s-0.6 -1.9 -0.6 -2.94 s0.2 -2.02 0.6 -2.96 c0.4 -0.92 0.96 -1.72 1.64 -2.42 c0.7 -0.68 1.5 -1.22 2.42 -1.62 s1.9 -0.6 2.94 -0.6 c1.32 0 2.54 0.3 3.64 0.92 c0.9 0.5 1.68 1.16 2.3 1.96 c0.22 0.26 0.12 0.64 -0.16 0.82 l-1.36 0.82 c-0.28 0.18 -0.66 0.08 -0.9 -0.16 c-0.36 -0.42 -0.78 -0.8 -1.28 -1.1 c-0.7 -0.42 -1.44 -0.64 -2.24 -0.64 c-0.66 0 -1.28 0.14 -1.86 0.4 c-0.58 0.28 -1.1 0.64 -1.52 1.1 c-0.44 0.46 -0.78 0.98 -1.04 1.58 c-0.26 0.62 -0.38 1.24 -0.38 1.9 s0.12 1.3 0.38 1.9 s0.6 1.12 1.04 1.58 c0.42 0.46 0.94 0.82 1.52 1.08 c0.58 0.28 1.2 0.42 1.86 0.42 c0.5 0 1 -0.08 1.46 -0.24 c0.46 -0.14 0.9 -0.36 1.28 -0.64 s0.72 -0.62 1.02 -1 c0.16 -0.22 0.3 -0.46 0.4 -0.7 c0.16 -0.32 -0.06 -0.58 -0.4 -0.58 l-4.16 0 c-0.34 0 -0.62 -0.28 -0.62 -0.62 l0 -1.28 c0 -0.34 0.28 -0.62 0.62 -0.62 l7.2 0 c0.34 0 0.62 0.28 0.62 0.62 z M83.70000000000002 20 l-1.58 0 c-0.34 0 -0.6 -0.28 -0.6 -0.62 l0 -13.38 c0 -0.34 0.26 -0.62 0.6 -0.62 l1.58 0 c0.34 0 0.62 0.28 0.62 0.62 l0 13.38 c0 0.34 -0.28 0.62 -0.62 0.62 z M90.72000000000001 11.92 l0 7.46 c0 0.34 -0.28 0.62 -0.62 0.62 l-1.58 0 c-0.32 0 -0.6 -0.28 -0.6 -0.62 l0 -13.68 c0 -0.34 0.44 -0.42 0.68 -0.2 l8.78 8.3 c0.26 0.24 0.46 0.14 0.46 -0.2 l0 -7.6 c0 -0.34 0.28 -0.62 0.62 -0.62 l1.56 0 c0.34 0 0.62 0.28 0.62 0.62 l0 13.66 c0 0.34 -0.44 0.42 -0.7 0.2 l-8.76 -8.16 c-0.26 -0.22 -0.46 -0.12 -0.46 0.22 z M118.06 12.620000000000001 c-0.02 0.54 -0.04 1.18 -0.06 1.26 c-0.08 0.92 -0.32 1.78 -0.74 2.56 s-0.96 1.46 -1.62 2.02 c-0.66 0.58 -1.42 1.02 -2.28 1.34 s-1.78 0.48 -2.72 0.48 c-1.04 0 -2.02 -0.2 -2.94 -0.6 s-1.72 -0.94 -2.42 -1.64 c-0.68 -0.68 -1.24 -1.48 -1.64 -2.4 s-0.6 -1.9 -0.6 -2.94 s0.2 -2.02 0.6 -2.96 c0.4 -0.92 0.96 -1.72 1.64 -2.42 c0.7 -0.68 1.5 -1.22 2.42 -1.62 s1.9 -0.6 2.94 -0.6 c1.32 0 2.54 0.3 3.64 0.92 c0.9 0.5 1.68 1.16 2.3 1.96 c0.22 0.26 0.12 0.64 -0.16 0.82 l-1.36 0.82 c-0.28 0.18 -0.66 0.08 -0.9 -0.16 c-0.36 -0.42 -0.78 -0.8 -1.28 -1.1 c-0.7 -0.42 -1.44 -0.64 -2.24 -0.64 c-0.66 0 -1.28 0.14 -1.86 0.4 c-0.58 0.28 -1.1 0.64 -1.52 1.1 c-0.44 0.46 -0.78 0.98 -1.04 1.58 c-0.26 0.62 -0.38 1.24 -0.38 1.9 s0.12 1.3 0.38 1.9 s0.6 1.12 1.04 1.58 c0.42 0.46 0.94 0.82 1.52 1.08 c0.58 0.28 1.2 0.42 1.86 0.42 c0.5 0 1 -0.08 1.46 -0.24 c0.46 -0.14 0.9 -0.36 1.28 -0.64 s0.72 -0.62 1.02 -1 c0.16 -0.22 0.3 -0.46 0.4 -0.7 c0.16 -0.32 -0.06 -0.58 -0.4 -0.58 l-4.16 0 c-0.34 0 -0.62 -0.28 -0.62 -0.62 l0 -1.28 c0 -0.34 0.28 -0.62 0.62 -0.62 l7.2 0 c0.34 0 0.62 0.28 0.62 0.62 z  M137.14000000000001 7.84 l-2.94 0 c-0.34 0 -0.62 0.28 -0.62 0.62 l0 10.92 c0 0.34 -0.28 0.62 -0.62 0.62 l-1.56 0 c-0.34 0 -0.62 -0.28 -0.62 -0.62 l0 -10.92 c0 -0.34 -0.28 -0.62 -0.62 -0.62 l-2.96 0 c-0.34 0 -0.62 -0.28 -0.62 -0.62 l0 -1.24 c0 -0.34 0.28 -0.62 0.62 -0.62 l9.94 0 c0.34 0 0.62 0.28 0.62 0.62 l0 1.24 c0 0.34 -0.28 0.62 -0.62 0.62 z M152.48000000000002 5.98 l0 13.4 c0 0.34 -0.28 0.62 -0.62 0.62 l-1.56 0 c-0.34 0 -0.62 -0.28 -0.62 -0.62 l0 -4.58 c0 -0.34 -0.28 -0.62 -0.62 -0.62 l-5.98 0 c-0.34 0 -0.62 0.28 -0.62 0.62 l0 4.58 c0 0.34 -0.28 0.62 -0.62 0.62 l-1.56 0 c-0.34 0 -0.62 -0.28 -0.62 -0.62 l0 -13.4 c0 -0.34 0.28 -0.62 0.62 -0.62 l1.56 0 c0.34 0 0.62 0.28 0.62 0.62 l0 5.1 c0 0.34 0.28 0.62 0.62 0.62 l5.98 0 c0.34 0 0.62 -0.28 0.62 -0.62 l0 -5.1 c0 -0.34 0.28 -0.62 0.62 -0.62 l1.56 0 c0.34 0 0.62 0.28 0.62 0.62 z M158.48000000000002 8.46 l0 2.42 c0 0.34 0.28 0.62 0.62 0.62 l5.84 0 c0.34 0 0.62 0.28 0.62 0.62 l0 1.3 c0 0.34 -0.28 0.62 -0.62 0.62 l-5.84 0 c-0.34 0 -0.62 0.28 -0.62 0.62 l0 2.2 c0 0.34 0.28 0.62 0.62 0.62 l6.74 0 c0.34 0 0.62 0.28 0.62 0.62 l0 1.28 c0 0.34 -0.28 0.62 -0.62 0.62 l-9.54 0 c-0.34 0 -0.62 -0.28 -0.62 -0.62 l0 -13.4 c0 -0.34 0.28 -0.62 0.62 -0.62 l9.54 0 c0.34 0 0.62 0.28 0.62 0.62 l0 1.24 c0 0.34 -0.28 0.62 -0.62 0.62 l-6.74 0 c-0.34 0 -0.62 0.28 -0.62 0.62 z  M193.98000000000002 5.960000000000001 l-5.04 13.82 c-0.12 0.32 -0.58 0.32 -0.72 0.02 l-3.46 -7.76 c-0.14 -0.32 -0.38 -0.32 -0.52 0 l-3.48 7.7 c-0.16 0.3 -0.6 0.3 -0.72 -0.02 l-4.98 -13.76 c-0.12 -0.32 0.06 -0.58 0.4 -0.58 l1.74 0 c0.34 0 0.72 0.26 0.82 0.58 l2.46 6.86 c0.1 0.32 0.32 0.32 0.46 0.02 l3.18 -7.22 c0.14 -0.3 0.6 -0.3 0.74 0 l3.18 7.24 c0.14 0.3 0.36 0.3 0.46 -0.02 l2.52 -6.88 c0.1 -0.32 0.48 -0.58 0.82 -0.58 l1.74 0 c0.34 0 0.52 0.26 0.4 0.58 z M202.84 20.28 c-4.18 0 -7.58 -3.4 -7.58 -7.6 c0 -4.18 3.4 -7.6 7.58 -7.6 c4.2 0 7.6 3.42 7.6 7.6 c0 4.2 -3.4 7.6 -7.6 7.6 z M202.84 7.699999999999999 c-2.64 0 -4.8 2.34 -4.8 4.98 c0 2.66 2.16 5 4.8 5 c2.66 0 4.8 -2.34 4.8 -5 c0 -2.64 -2.14 -4.98 -4.8 -4.98 z M215.12 20 l-1.58 0 c-0.34 0 -0.62 -0.28 -0.62 -0.62 l0 -13.4 c0 -0.34 0.28 -0.62 0.62 -0.62 l6.04 0 c0.74 0 1.44 0.12 2.06 0.36 c0.62 0.26 1.14 0.6 1.58 1.04 c0.44 0.46 0.8 0.98 1.04 1.6 s0.36 1.3 0.36 2.04 c0 1.1 -0.26 2.08 -0.82 2.9 c-0.44 0.66 -1 1.16 -1.66 1.52 c-0.3 0.16 -0.4 0.48 -0.18 0.74 c0.98 1.32 1.84 2.46 2.8 3.78 c0.2 0.28 0.1 0.66 -0.24 0.66 l-2.02 0 c-0.34 0 -0.78 -0.22 -0.98 -0.48 c-0.46 -0.6 -0.9 -1.22 -1.34 -1.82 l-1.32 -1.86 c-0.2 -0.28 -0.64 -0.5 -0.98 -0.5 l-1.54 0 c-0.34 0 -0.62 0.28 -0.62 0.62 l0 3.42 c0 0.34 -0.26 0.62 -0.6 0.62 z M216.34 12.86 l3.24 0 c0.24 0 0.52 -0.06 0.78 -0.16 c0.28 -0.1 0.52 -0.24 0.74 -0.46 c0.2 -0.2 0.38 -0.46 0.52 -0.76 s0.2 -0.66 0.2 -1.08 c0 -0.22 -0.02 -0.46 -0.08 -0.76 c-0.04 -0.3 -0.16 -0.58 -0.3 -0.84 c-0.16 -0.26 -0.4 -0.5 -0.68 -0.68 c-0.3 -0.18 -0.7 -0.28 -1.18 -0.28 l-3.24 0 c-0.34 0 -0.62 0.28 -0.62 0.62 l0 3.78 c0 0.34 0.28 0.62 0.62 0.62 z M237.86 18.14 l0 1.24 c0 0.34 -0.28 0.62 -0.62 0.62 l-9.3 0 c-0.34 0 -0.62 -0.28 -0.62 -0.62 l0 -13.4 c0 -0.34 0.28 -0.62 0.62 -0.62 l1.56 0 c0.34 0 0.62 0.28 0.62 0.62 l0 10.92 c0 0.34 0.28 0.62 0.62 0.62 l6.5 0 c0.34 0 0.62 0.28 0.62 0.62 z M245.38000000000002 20 l-5.16 0 c-0.34 0 -0.6 -0.28 -0.6 -0.62 l0 -13.4 c0 -0.34 0.26 -0.62 0.6 -0.62 l5.16 0 c2.1 0 3.82 0.62 5.16 1.84 c0.72 0.66 1.26 1.44 1.62 2.36 c0.36 0.94 0.56 1.98 0.56 3.12 c0 1.16 -0.2 2.2 -0.56 3.12 c-0.36 0.94 -0.9 1.72 -1.62 2.38 c-0.66 0.6 -1.42 1.06 -2.3 1.36 c-0.86 0.3 -1.82 0.46 -2.86 0.46 z M243.02 17.52 l2.38 0 c0.52 0 1.04 -0.06 1.58 -0.18 c0.52 -0.12 1 -0.36 1.44 -0.72 c0.44 -0.34 0.8 -0.84 1.08 -1.46 s0.42 -1.44 0.42 -2.46 s-0.14 -1.84 -0.42 -2.48 c-0.28 -0.62 -0.64 -1.12 -1.08 -1.46 s-0.94 -0.58 -1.46 -0.7 c-0.54 -0.12 -1.06 -0.18 -1.56 -0.18 l-2.38 0 c-0.34 0 -0.6 0.28 -0.6 0.62 l0 8.4 c0 0.34 0.26 0.62 0.6 0.62 z M257.26 19.66 c-0.06 0.42 -0.24 0.8 -0.44 1.16 c-0.22 0.38 -0.5 0.7 -0.84 0.98 c-0.2 0.16 -0.42 0.28 -0.66 0.4 c-0.32 0.12 -0.5 0.2 -0.72 -0.12 c-0.12 -0.2 -0.06 -0.4 0.32 -0.66 c0.16 -0.12 0.6 -0.52 0.7 -0.78 s-0.12 -0.46 -0.4 -0.56 c-0.18 -0.08 -0.34 -0.18 -0.48 -0.32 c-0.3 -0.26 -0.46 -0.6 -0.48 -1 c-0.04 -0.42 0.1 -0.76 0.38 -1.06 s0.62 -0.46 1.02 -0.48 c0.36 -0.02 0.68 0.08 0.96 0.3 s0.5 0.54 0.6 0.92 c0.08 0.4 0.1 0.8 0.04 1.22 z  M273.21999999999997 20.28 c-4.18 0 -7.58 -3.4 -7.58 -7.6 c0 -4.18 3.4 -7.6 7.58 -7.6 c4.2 0 7.6 3.42 7.6 7.6 c0 4.2 -3.4 7.6 -7.6 7.6 z M273.21999999999997 7.699999999999999 c-2.64 0 -4.8 2.34 -4.8 4.98 c0 2.66 2.16 5 4.8 5 c2.66 0 4.8 -2.34 4.8 -5 c0 -2.64 -2.14 -4.98 -4.8 -4.98 z M286.09999999999997 11.92 l0 7.46 c0 0.34 -0.28 0.62 -0.62 0.62 l-1.58 0 c-0.32 0 -0.6 -0.28 -0.6 -0.62 l0 -13.68 c0 -0.34 0.44 -0.42 0.68 -0.2 l8.78 8.3 c0.26 0.24 0.46 0.14 0.46 -0.2 l0 -7.6 c0 -0.34 0.28 -0.62 0.62 -0.62 l1.56 0 c0.34 0 0.62 0.28 0.62 0.62 l0 13.66 c0 0.34 -0.44 0.42 -0.7 0.2 l-8.76 -8.16 c-0.26 -0.22 -0.46 -0.12 -0.46 0.22 z M302.02 8.46 l0 2.42 c0 0.34 0.28 0.62 0.62 0.62 l5.84 0 c0.34 0 0.62 0.28 0.62 0.62 l0 1.3 c0 0.34 -0.28 0.62 -0.62 0.62 l-5.84 0 c-0.34 0 -0.62 0.28 -0.62 0.62 l0 2.2 c0 0.34 0.28 0.62 0.62 0.62 l6.74 0 c0.34 0 0.62 0.28 0.62 0.62 l0 1.28 c0 0.34 -0.28 0.62 -0.62 0.62 l-9.54 0 c-0.34 0 -0.62 -0.28 -0.62 -0.62 l0 -13.4 c0 -0.34 0.28 -0.62 0.62 -0.62 l9.54 0 c0.34 0 0.62 0.28 0.62 0.62 l0 1.24 c0 0.34 -0.28 0.62 -0.62 0.62 l-6.74 0 c-0.34 0 -0.62 0.28 -0.62 0.62 z  M332.8 16.92 c-0.26 0.38 -0.54 0.74 -0.86 1.06 c-0.46 0.48 -0.98 0.88 -1.56 1.22 c-0.56 0.34 -1.18 0.62 -1.84 0.8 s-1.34 0.28 -2.04 0.28 c-1.04 0 -2.02 -0.2 -2.94 -0.6 s-1.72 -0.94 -2.42 -1.64 c-0.68 -0.68 -1.22 -1.48 -1.62 -2.4 s-0.6 -1.9 -0.6 -2.94 s0.2 -2.02 0.6 -2.94 s0.94 -1.72 1.62 -2.42 c0.7 -0.68 1.5 -1.22 2.42 -1.62 s1.9 -0.6 2.94 -0.6 c0.7 0 1.38 0.1 2.04 0.28 s1.28 0.44 1.84 0.78 c0.58 0.34 1.1 0.76 1.56 1.22 c0.32 0.34 0.6 0.68 0.86 1.06 c0.18 0.28 0.06 0.62 -0.26 0.74 l-1.48 0.6 c-0.3 0.14 -0.7 0.02 -0.92 -0.24 c-0.12 -0.14 -0.26 -0.28 -0.4 -0.42 c-0.28 -0.28 -0.6 -0.52 -0.94 -0.74 s-0.72 -0.38 -1.1 -0.5 s-0.78 -0.18 -1.2 -0.18 c-0.66 0 -1.3 0.14 -1.88 0.4 c-0.58 0.28 -1.08 0.64 -1.5 1.1 s-0.76 0.98 -1.02 1.58 c-0.26 0.62 -0.38 1.24 -0.38 1.9 s0.12 1.3 0.38 1.9 s0.6 1.12 1.02 1.58 s0.92 0.82 1.5 1.08 c0.58 0.28 1.22 0.42 1.88 0.42 c0.42 0 0.82 -0.06 1.2 -0.18 s0.76 -0.28 1.1 -0.5 s0.66 -0.46 0.94 -0.76 c0.14 -0.14 0.28 -0.28 0.4 -0.42 c0.22 -0.26 0.62 -0.38 0.92 -0.26 l1.48 0.6 c0.32 0.14 0.44 0.48 0.26 0.76 z M342.12 20.28 c-4.18 0 -7.58 -3.4 -7.58 -7.6 c0 -4.18 3.4 -7.6 7.58 -7.6 c4.2 0 7.6 3.42 7.6 7.6 c0 4.2 -3.4 7.6 -7.6 7.6 z M342.12 7.699999999999999 c-2.64 0 -4.8 2.34 -4.8 4.98 c0 2.66 2.16 5 4.8 5 c2.66 0 4.8 -2.34 4.8 -5 c0 -2.64 -2.14 -4.98 -4.8 -4.98 z M355 11.92 l0 7.46 c0 0.34 -0.28 0.62 -0.62 0.62 l-1.58 0 c-0.32 0 -0.6 -0.28 -0.6 -0.62 l0 -13.68 c0 -0.34 0.44 -0.42 0.68 -0.2 l8.78 8.3 c0.26 0.24 0.46 0.14 0.46 -0.2 l0 -7.6 c0 -0.34 0.28 -0.62 0.62 -0.62 l1.56 0 c0.34 0 0.62 0.28 0.62 0.62 l0 13.66 c0 0.34 -0.44 0.42 -0.7 0.2 l-8.76 -8.16 c-0.26 -0.22 -0.46 -0.12 -0.46 0.22 z M380.56000000000006 5.9399999999999995 l-6.4 13.8 c-0.14 0.3 -0.62 0.3 -0.76 0 l-6.38 -13.8 c-0.14 -0.32 0.02 -0.56 0.34 -0.56 l1.86 0 c0.34 0 0.74 0.24 0.88 0.56 l3.42 7.36 c0.14 0.3 0.38 0.3 0.52 0 l3.42 -7.36 c0.14 -0.32 0.54 -0.56 0.88 -0.56 l1.86 0 c0.34 0 0.5 0.24 0.36 0.56 z M385.34000000000003 8.46 l0 2.42 c0 0.34 0.28 0.62 0.62 0.62 l5.84 0 c0.34 0 0.62 0.28 0.62 0.62 l0 1.3 c0 0.34 -0.28 0.62 -0.62 0.62 l-5.84 0 c-0.34 0 -0.62 0.28 -0.62 0.62 l0 2.2 c0 0.34 0.28 0.62 0.62 0.62 l6.74 0 c0.34 0 0.62 0.28 0.62 0.62 l0 1.28 c0 0.34 -0.28 0.62 -0.62 0.62 l-9.54 0 c-0.34 0 -0.62 -0.28 -0.62 -0.62 l0 -13.4 c0 -0.34 0.28 -0.62 0.62 -0.62 l9.54 0 c0.34 0 0.62 0.28 0.62 0.62 l0 1.24 c0 0.34 -0.28 0.62 -0.62 0.62 l-6.74 0 c-0.34 0 -0.62 0.28 -0.62 0.62 z M398.4000000000001 20 l-1.58 0 c-0.34 0 -0.62 -0.28 -0.62 -0.62 l0 -13.4 c0 -0.34 0.28 -0.62 0.62 -0.62 l6.04 0 c0.74 0 1.44 0.12 2.06 0.36 c0.62 0.26 1.14 0.6 1.58 1.04 c0.44 0.46 0.8 0.98 1.04 1.6 s0.36 1.3 0.36 2.04 c0 1.1 -0.26 2.08 -0.82 2.9 c-0.44 0.66 -1 1.16 -1.66 1.52 c-0.3 0.16 -0.4 0.48 -0.18 0.74 c0.98 1.32 1.84 2.46 2.8 3.78 c0.2 0.28 0.1 0.66 -0.24 0.66 l-2.02 0 c-0.34 0 -0.78 -0.22 -0.98 -0.48 c-0.46 -0.6 -0.9 -1.22 -1.34 -1.82 l-1.32 -1.86 c-0.2 -0.28 -0.64 -0.5 -0.98 -0.5 l-1.54 0 c-0.34 0 -0.62 0.28 -0.62 0.62 l0 3.42 c0 0.34 -0.26 0.62 -0.6 0.62 z M399.62000000000006 12.86 l3.24 0 c0.24 0 0.52 -0.06 0.78 -0.16 c0.28 -0.1 0.52 -0.24 0.74 -0.46 c0.2 -0.2 0.38 -0.46 0.52 -0.76 s0.2 -0.66 0.2 -1.08 c0 -0.22 -0.02 -0.46 -0.08 -0.76 c-0.04 -0.3 -0.16 -0.58 -0.3 -0.84 c-0.16 -0.26 -0.4 -0.5 -0.68 -0.68 c-0.3 -0.18 -0.7 -0.28 -1.18 -0.28 l-3.24 0 c-0.34 0 -0.62 0.28 -0.62 0.62 l0 3.78 c0 0.34 0.28 0.62 0.62 0.62 z M410.36000000000007 17.58 l0.84 -1.24 c0.18 -0.28 0.56 -0.34 0.84 -0.16 c0.58 0.36 1.16 0.68 1.76 0.96 c0.78 0.38 1.6 0.56 2.46 0.56 c0.46 0 0.86 -0.06 1.2 -0.18 c0.34 -0.1 0.64 -0.26 0.88 -0.44 s0.42 -0.38 0.54 -0.62 c0.12 -0.22 0.18 -0.46 0.18 -0.68 c0 -0.3 -0.1 -0.54 -0.28 -0.76 c-0.18 -0.2 -0.42 -0.36 -0.72 -0.5 s-0.64 -0.24 -1.06 -0.34 c-0.4 -0.1 -0.82 -0.18 -1.26 -0.26 c-0.3 -0.06 -0.64 -0.12 -1.02 -0.2 c-0.38 -0.06 -0.78 -0.16 -1.2 -0.3 c-0.42 -0.12 -0.82 -0.28 -1.22 -0.5 c-0.4 -0.2 -0.76 -0.46 -1.08 -0.78 c-0.32 -0.3 -0.58 -0.68 -0.78 -1.12 c-0.18 -0.42 -0.28 -0.94 -0.28 -1.52 c0 -0.86 0.18 -1.56 0.52 -2.14 c0.34 -0.56 0.78 -1 1.32 -1.34 c0.54 -0.32 1.14 -0.54 1.8 -0.68 s1.3 -0.2 1.92 -0.2 s1.16 0.04 1.64 0.12 s0.92 0.2 1.34 0.34 c0.42 0.16 0.82 0.36 1.2 0.58 c0.26 0.16 0.5 0.32 0.78 0.48 c0.28 0.2 0.34 0.58 0.14 0.86 l-0.84 1.2 c-0.2 0.28 -0.58 0.34 -0.88 0.16 c-0.5 -0.32 -1 -0.58 -1.48 -0.76 c-0.64 -0.26 -1.32 -0.38 -2.02 -0.38 c-0.24 0 -0.52 0.02 -0.82 0.08 s-0.6 0.16 -0.88 0.3 c-0.26 0.14 -0.5 0.3 -0.68 0.5 c-0.18 0.22 -0.26 0.46 -0.26 0.76 s0.1 0.54 0.32 0.74 s0.48 0.36 0.82 0.5 s0.7 0.24 1.1 0.34 s0.78 0.18 1.16 0.28 c0.28 0.06 0.6 0.14 0.98 0.2 s0.78 0.16 1.18 0.28 c0.22 0.06 0.44 0.14 0.66 0.22 c0.32 0.14 0.8 0.38 1.08 0.58 c0.2 0.12 0.38 0.28 0.54 0.44 c0.32 0.32 0.58 0.7 0.76 1.16 c0.2 0.46 0.3 1.02 0.3 1.68 c0 0.76 -0.14 1.42 -0.4 1.98 s-0.64 1.02 -1.14 1.38 c-0.5 0.38 -1.08 0.66 -1.76 0.84 s-1.44 0.28 -2.26 0.28 c-0.76 0 -1.44 -0.06 -2.02 -0.18 c-0.58 -0.1 -1.1 -0.26 -1.58 -0.46 c-0.48 -0.18 -0.94 -0.42 -1.36 -0.68 c-0.26 -0.16 -0.54 -0.34 -0.82 -0.54 c-0.28 -0.18 -0.34 -0.56 -0.16 -0.84 z M423.00000000000006 19.46 l6.94 -13.86 c0.16 -0.32 0.64 -0.32 0.8 0 l6.94 13.86 c0.16 0.3 0.02 0.54 -0.32 0.54 l-1.82 0 c-0.34 0 -0.74 -0.24 -0.88 -0.56 l-0.6 -1.2 c-0.16 -0.3 -0.54 -0.54 -0.88 -0.54 l-5.68 0 c-0.34 0 -0.74 0.24 -0.88 0.56 l-0.58 1.18 c-0.16 0.32 -0.54 0.56 -0.88 0.56 l-1.82 0 c-0.34 0 -0.48 -0.24 -0.34 -0.54 z M428.86000000000007 15.26 l2.96 0 c0.34 0 0.48 -0.26 0.34 -0.56 l-1.56 -3.3 c-0.14 -0.32 -0.38 -0.32 -0.52 0 l-1.58 3.3 c-0.14 0.32 0.02 0.56 0.36 0.56 z M449.5800000000001 7.84 l-2.94 0 c-0.34 0 -0.62 0.28 -0.62 0.62 l0 10.92 c0 0.34 -0.28 0.62 -0.62 0.62 l-1.56 0 c-0.34 0 -0.62 -0.28 -0.62 -0.62 l0 -10.92 c0 -0.34 -0.28 -0.62 -0.62 -0.62 l-2.96 0 c-0.34 0 -0.62 -0.28 -0.62 -0.62 l0 -1.24 c0 -0.34 0.28 -0.62 0.62 -0.62 l9.94 0 c0.34 0 0.62 0.28 0.62 0.62 l0 1.24 c0 0.34 -0.28 0.62 -0.62 0.62 z M454.7000000000001 20 l-1.58 0 c-0.34 0 -0.6 -0.28 -0.6 -0.62 l0 -13.38 c0 -0.34 0.26 -0.62 0.6 -0.62 l1.58 0 c0.34 0 0.62 0.28 0.62 0.62 l0 13.38 c0 0.34 -0.28 0.62 -0.62 0.62 z M465.7600000000001 20.28 c-4.18 0 -7.58 -3.4 -7.58 -7.6 c0 -4.18 3.4 -7.6 7.58 -7.6 c4.2 0 7.6 3.42 7.6 7.6 c0 4.2 -3.4 7.6 -7.6 7.6 z M465.7600000000001 7.699999999999999 c-2.64 0 -4.8 2.34 -4.8 4.98 c0 2.66 2.16 5 4.8 5 c2.66 0 4.8 -2.34 4.8 -5 c0 -2.64 -2.14 -4.98 -4.8 -4.98 z M478.6400000000001 11.92 l0 7.46 c0 0.34 -0.28 0.62 -0.62 0.62 l-1.58 0 c-0.32 0 -0.6 -0.28 -0.6 -0.62 l0 -13.68 c0 -0.34 0.44 -0.42 0.68 -0.2 l8.78 8.3 c0.26 0.24 0.46 0.14 0.46 -0.2 l0 -7.6 c0 -0.34 0.28 -0.62 0.62 -0.62 l1.56 0 c0.34 0 0.62 0.28 0.62 0.62 l0 13.66 c0 0.34 -0.44 0.42 -0.7 0.2 l-8.76 -8.16 c-0.26 -0.22 -0.46 -0.12 -0.46 0.22 z  M497.4000000000001 19.46 l6.94 -13.86 c0.16 -0.32 0.64 -0.32 0.8 0 l6.94 13.86 c0.16 0.3 0.02 0.54 -0.32 0.54 l-1.82 0 c-0.34 0 -0.74 -0.24 -0.88 -0.56 l-0.6 -1.2 c-0.16 -0.3 -0.54 -0.54 -0.88 -0.54 l-5.68 0 c-0.34 0 -0.74 0.24 -0.88 0.56 l-0.58 1.18 c-0.16 0.32 -0.54 0.56 -0.88 0.56 l-1.82 0 c-0.34 0 -0.48 -0.24 -0.34 -0.54 z M503.2600000000001 15.26 l2.96 0 c0.34 0 0.48 -0.26 0.34 -0.56 l-1.56 -3.3 c-0.14 -0.32 -0.38 -0.32 -0.52 0 l-1.58 3.3 c-0.14 0.32 0.02 0.56 0.36 0.56 z M523.9800000000001 7.84 l-2.94 0 c-0.34 0 -0.62 0.28 -0.62 0.62 l0 10.92 c0 0.34 -0.28 0.62 -0.62 0.62 l-1.56 0 c-0.34 0 -0.62 -0.28 -0.62 -0.62 l0 -10.92 c0 -0.34 -0.28 -0.62 -0.62 -0.62 l-2.96 0 c-0.34 0 -0.62 -0.28 -0.62 -0.62 l0 -1.24 c0 -0.34 0.28 -0.62 0.62 -0.62 l9.94 0 c0.34 0 0.62 0.28 0.62 0.62 l0 1.24 c0 0.34 -0.28 0.62 -0.62 0.62 z  M532.1600000000002 19.46 l6.94 -13.86 c0.16 -0.32 0.64 -0.32 0.8 0 l6.94 13.86 c0.16 0.3 0.02 0.54 -0.32 0.54 l-1.82 0 c-0.34 0 -0.74 -0.24 -0.88 -0.56 l-0.6 -1.2 c-0.16 -0.3 -0.54 -0.54 -0.88 -0.54 l-5.68 0 c-0.34 0 -0.74 0.24 -0.88 0.56 l-0.58 1.18 c-0.16 0.32 -0.54 0.56 -0.88 0.56 l-1.82 0 c-0.34 0 -0.48 -0.24 -0.34 -0.54 z M538.0200000000002 15.26 l2.96 0 c0.34 0 0.48 -0.26 0.34 -0.56 l-1.56 -3.3 c-0.14 -0.32 -0.38 -0.32 -0.52 0 l-1.58 3.3 c-0.14 0.32 0.02 0.56 0.36 0.56 z  M565.5800000000003 7.84 l-2.94 0 c-0.34 0 -0.62 0.28 -0.62 0.62 l0 10.92 c0 0.34 -0.28 0.62 -0.62 0.62 l-1.56 0 c-0.34 0 -0.62 -0.28 -0.62 -0.62 l0 -10.92 c0 -0.34 -0.28 -0.62 -0.62 -0.62 l-2.96 0 c-0.34 0 -0.62 -0.28 -0.62 -0.62 l0 -1.24 c0 -0.34 0.28 -0.62 0.62 -0.62 l9.94 0 c0.34 0 0.62 0.28 0.62 0.62 l0 1.24 c0 0.34 -0.28 0.62 -0.62 0.62 z M570.7000000000003 20 l-1.58 0 c-0.34 0 -0.6 -0.28 -0.6 -0.62 l0 -13.38 c0 -0.34 0.26 -0.62 0.6 -0.62 l1.58 0 c0.34 0 0.62 0.28 0.62 0.62 l0 13.38 c0 0.34 -0.28 0.62 -0.62 0.62 z M589.6600000000003 5.699999999999999 l0 13.68 c0 0.34 -0.28 0.62 -0.6 0.62 l-1.58 0 c-0.34 0 -0.62 -0.28 -0.62 -0.62 l0 -6.16 c0 -0.34 -0.18 -0.42 -0.38 -0.14 l-3.8 4.54 c-0.22 0.26 -0.58 0.26 -0.78 0 l-3.78 -4.54 c-0.22 -0.26 -0.4 -0.2 -0.4 0.14 l0 6.16 c0 0.34 -0.28 0.62 -0.62 0.62 l-1.56 0 c-0.34 0 -0.62 -0.28 -0.62 -0.62 l0 -13.68 c0 -0.34 0.42 -0.4 0.64 -0.14 l6.32 7.8 c0.22 0.24 0.58 0.24 0.8 0 l6.34 -7.8 c0.22 -0.26 0.64 -0.2 0.64 0.14 z M595.6800000000003 8.46 l0 2.42 c0 0.34 0.28 0.62 0.62 0.62 l5.84 0 c0.34 0 0.62 0.28 0.62 0.62 l0 1.3 c0 0.34 -0.28 0.62 -0.62 0.62 l-5.84 0 c-0.34 0 -0.62 0.28 -0.62 0.62 l0 2.2 c0 0.34 0.28 0.62 0.62 0.62 l6.74 0 c0.34 0 0.62 0.28 0.62 0.62 l0 1.28 c0 0.34 -0.28 0.62 -0.62 0.62 l-9.54 0 c-0.34 0 -0.62 -0.28 -0.62 -0.62 l0 -13.4 c0 -0.34 0.28 -0.62 0.62 -0.62 l9.54 0 c0.34 0 0.62 0.28 0.62 0.62 l0 1.24 c0 0.34 -0.28 0.62 -0.62 0.62 l-6.74 0 c-0.34 0 -0.62 0.28 -0.62 0.62 z"></path></g>
			</g>
		</svg>
	